<svg width="117" height="117" viewBox="0 0 117 117" fill="none" xmlns="http://www.w3.org/2000/svg">
<path d="M17.5331 17.1104L8.36849 88.2358C3.18849 79.5692 0.200012 69.3088 0.200012 58.4507C0.200012 42.313 6.87424 27.6696 17.5331 17.1104Z" fill="#F4811F"/>
<path d="M11.1577 92.4196L34.6669 5.35578C41.9388 2.06847 50.0077 0.275391 58.475 0.275391C62.9577 0.275391 67.4404 0.873089 71.7238 1.86924L16.0388 98.3965C14.2458 96.4706 12.5855 94.4783 11.0581 92.4196H11.1577Z" fill="#F4811F"/>
<path d="M18.1308 100.389L89.555 9.34045C99.6162 15.7158 107.585 25.0797 112.267 36.137L22.8127 104.473C21.1524 103.211 19.5918 101.85 18.1308 100.389Z" fill="#F4811F"/>
<path d="M25.3031 106.366L116.551 54.6654C116.617 55.9272 116.65 57.189 116.65 58.4508C116.65 70.9027 112.765 82.4581 106.091 92.0212L33.5712 111.048C30.6491 109.72 27.8931 108.159 25.3031 106.366Z" fill="#F4811F"/>
<path d="M40.9427 114.036L88.6585 108.259C79.8923 113.538 69.5323 116.626 58.475 116.626C52.2988 116.626 46.4216 115.73 40.9427 114.036Z" fill="#F4811F"/>
</svg>
